<svg width="150" height="151" viewBox="0 0 150 151" fill="none" xmlns="http://www.w3.org/2000/svg">
<path d="M110.726 104.267H111.726V104.162C115.292 103.509 117.322 99.4215 115.374 96.1272C115.373 96.1266 115.373 96.126 115.373 96.1254L79.6479 35.3918C79.6479 35.3917 79.6478 35.3916 79.6477 35.3914C77.562 31.8426 72.438 31.8426 70.3522 35.3915C70.3522 35.3916 70.3521 35.3917 70.3521 35.3918L34.6273 96.1403C34.627 96.1409 34.6267 96.1414 34.6263 96.142C32.5025 99.7332 35.1056 104.267 39.2737 104.267H54.5807C58.7189 104.267 62.5659 102.084 64.6693 98.4969L64.6786 98.4811L64.6872 98.4649L74.1517 80.8775L74.1588 80.8643L74.1609 80.8598C74.161 80.8598 74.1652 80.8524 74.175 80.8367L74.1892 80.8144L74.1926 80.8092L74.1926 80.8092L74.1926 80.8091L74.1927 80.809L74.1929 80.8088L74.1931 80.8085L74.1933 80.8082L74.7834 79.9229L73.8615 79.3891L67.564 75.7432V67.1493L75 62.8532L82.436 67.1493V75.7432L76.1385 79.3891L75.3245 79.8604L75.7451 80.7017C75.7824 80.7765 75.8261 80.8474 75.8474 80.8814C75.8548 80.8933 75.8617 80.9042 75.8679 80.9139L85.3128 98.4649L85.3219 98.482L85.3317 98.4986C87.4336 102.067 91.2633 104.267 95.4193 104.267H110.726ZM1 75.5C1 34.6324 34.1324 1.5 75 1.5C115.868 1.5 149 34.6324 149 75.5C149 116.368 115.868 149.5 75 149.5C34.1324 149.5 1 116.368 1 75.5Z" stroke="white" stroke-opacity="0.1" stroke-width="2"/>
</svg>
