<svg width="174" height="40" viewBox="0 0 174 40" fill="none" xmlns="http://www.w3.org/2000/svg">
<g id="arkeo-logo" clip-path="url(#clip0_110_702)">
<g id="Group 15">
<path id="loog-mark" d="M20.2234 0C9.17805 0 0.223358 8.95469 0.223358 20C0.223358 31.0453 9.17805 40 20.2234 40C31.2687 40 40.2234 31.0453 40.2234 20C40.2234 8.95469 31.2687 0 20.2234 0ZM29.7504 27.4046H25.6685C24.655 27.4046 23.721 26.868 23.2083 25.9976L20.6844 21.3076C20.6844 21.3076 20.6685 21.2838 20.6606 21.2679L22.473 20.2186V17.6192L20.2234 16.3196L17.9738 17.6192V20.2186L19.7862 21.2679C19.7862 21.2679 19.7703 21.2917 19.7623 21.3076L17.2385 25.9976C16.7257 26.872 15.7877 27.4046 14.7782 27.4046H10.6963C9.79013 27.4046 9.22574 26.4189 9.68679 25.6399L19.2138 9.43959C19.6669 8.66852 20.7798 8.66852 21.2329 9.43959L30.7599 25.6359C31.221 26.4149 30.6566 27.4006 29.7504 27.4006V27.4046Z" fill="#3BE0FF"/>
<g id="logo-text">
<path d="M57.0834 9.08582H63.6653L72.465 30.8465H65.9507L64.9451 28.0246H55.8116L54.806 30.8465H48.2917L57.0914 9.08582H57.0834ZM63.2281 23.12L60.6407 15.7671C60.438 15.2305 60.4062 15.0278 60.3704 14.8927C60.3704 14.8927 60.3028 15.1947 60.1001 15.7671L57.5127 23.12H63.2281Z" fill="white"/>
<path d="M77.0954 9.08582H86.6979C93.3792 9.08582 96.8052 12.9491 96.8052 17.6828C96.8052 20.2027 95.6645 22.7861 93.3792 24.364L97.4412 30.8465H90.1558L87.6717 26.1764C87 26.244 86.6304 26.2758 86.0938 26.2758H83.4745V30.8426H77.0954V9.08582ZM86.7655 20.8704C88.7448 20.8704 90.0564 19.4276 90.0564 17.6788C90.0564 15.93 88.713 14.4872 86.7973 14.4872H83.4745V20.8664H86.7655V20.8704Z" fill="white"/>
<path d="M102.35 9.08582H108.729V19.531C109.099 18.8593 109.468 18.0882 109.937 17.3132L114.941 9.08582H122.294L115.577 18.5532L123.403 30.8426H115.947L111.817 23.5572L108.729 27.6192V30.8426H102.35V9.08582Z" fill="white"/>
<path d="M128.041 9.08582H145.335V14.4912H134.421V17.1462H144.897V22.4841H134.421V25.4411H145.736V30.8465H128.041V9.08582Z" fill="white"/>
<path d="M150.438 19.9682C150.438 13.7559 155.104 8.75195 162.091 8.75195C169.079 8.75195 173.777 13.7559 173.777 19.9682C173.777 26.1804 169.075 31.252 162.091 31.252C155.108 31.252 150.438 26.248 150.438 19.9682ZM166.754 16.554L162.771 14.2527C162.362 14.0143 161.857 14.0143 161.448 14.2527L157.465 16.554C157.056 16.7925 156.801 17.2297 156.801 17.6987V22.3012C156.801 22.7742 157.052 23.2114 157.465 23.4499L161.448 25.7512C161.857 25.9857 162.362 25.9857 162.771 25.7512L166.754 23.4499C167.163 23.2114 167.417 22.7742 167.417 22.3012V17.6987C167.417 17.2257 167.167 16.7885 166.754 16.554Z" fill="white"/>
</g>
</g>
</g>
<defs>
<clipPath id="clip0_110_702">
<rect width="173.553" height="40" fill="white" transform="translate(0.223358)"/>
</clipPath>
</defs>
</svg>
