<svg width="150" height="151" viewBox="0 0 150 151" fill="none" xmlns="http://www.w3.org/2000/svg">
<g clip-path="url(#clip0_112_1745)">
<path d="M75 150.5C116.421 150.5 150 116.921 150 75.5C150 34.0786 116.421 0.5 75 0.5C33.5786 0.5 0 34.0786 0 75.5C0 116.921 33.5786 150.5 75 150.5Z" fill="white" fill-opacity="0.02"/>
<path d="M75.0001 83.216C79.2615 83.216 82.7161 79.7614 82.7161 75.5C82.7161 71.2386 79.2615 67.784 75.0001 67.784C70.7386 67.784 67.2841 71.2386 67.2841 75.5C67.2841 79.7614 70.7386 83.216 75.0001 83.216Z" fill="white" fill-opacity="0.1"/>
<path fillule="evenodd" clip-rule="evenodd" d="M28.7034 61.6112C28.7034 61.2156 28.7513 60.8317 28.8415 60.4652C20.5619 52.6341 16.4546 46.1609 18.4074 42.7838C21.5276 37.3881 39.2309 41.4781 61.4841 51.9102C63.6109 27.4245 68.93 10.0682 75.1542 10.0682C81.3883 10.0682 86.7144 27.48 88.8344 52.0274C93.5176 49.8534 97.9988 47.9574 102.186 46.368C102.169 46.2044 102.16 46.0384 102.16 45.8702C102.16 43.3133 104.164 41.2406 106.636 41.2406C108.27 41.2406 109.7 42.1472 110.481 43.5008C121.959 39.9698 130.043 39.5294 132.043 43.0154C135.141 48.4157 122.741 61.6748 102.549 75.7101C122.668 89.8293 135.025 103.137 131.901 108.525C128.78 113.923 111.087 109.828 88.8252 99.388C86.6991 123.88 81.3793 141.241 75.1542 141.241C71.2102 141.241 67.6297 134.273 64.9945 122.937C62.9544 122.506 61.4196 120.639 61.4196 118.401C61.4196 116.82 62.1859 115.424 63.3554 114.589C62.5844 109.92 61.9485 104.778 61.4736 99.2771C39.1186 109.654 21.3644 113.698 18.2628 108.291C15.1649 102.89 27.5663 89.6299 47.7597 75.5939C43.0274 72.2745 38.725 69.0001 34.9525 65.8629C34.4086 66.106 33.8089 66.2408 33.1788 66.2408C30.7071 66.2408 28.7034 64.168 28.7034 61.6112ZM61.2211 55.1977C60.9379 59.059 60.7328 63.0783 60.6139 67.2185C57.0368 69.4083 53.6115 71.6132 50.3672 73.8066C44.2111 69.394 39.3835 65.5546 37.1529 63.7423C37.4732 63.1044 37.6542 62.3796 37.6542 61.6112C37.6542 59.0543 35.6505 56.9816 33.1788 56.9816C32.179 56.9816 31.2558 57.3207 30.5108 57.8938C21.848 49.5773 21.1032 45.5066 21.1032 45.5066L21.099 45.491C20.499 44.0684 21.7656 43.7258 21.7656 43.7258C27.3732 42.6668 35.25 45.08 35.25 45.08C42.6586 46.7671 52.0732 50.7318 61.2211 55.1977ZM67.8938 122.545C69.3621 121.785 70.3704 120.215 70.3704 118.401C70.3704 115.936 68.5081 113.921 66.1596 113.78C65.3851 108.775 64.8356 103.325 64.4493 97.8713C67.9186 96.2042 71.4846 94.3929 75.1117 92.4485C78.8108 94.4532 82.4468 96.3183 85.9817 98.0319C84.964 108.529 83.6202 116.241 83.6202 116.241C80.5152 133.833 76.1664 137.54 76.1664 137.54C75.2406 138.775 74.3148 137.848 74.3148 137.848C70.5864 133.528 68.7222 125.503 68.7222 125.503C68.4301 124.563 68.1543 123.575 67.8938 122.545ZM103.535 49.2084C99.3878 50.7543 94.6022 52.7061 89.0847 55.1621C89.3699 59.0448 89.5763 63.0874 89.6954 67.2522C93.3275 69.4983 96.8028 71.7595 100.091 74.0074C107.066 69.0507 115.425 62.4578 123.35 54.5462C123.35 54.5462 129.292 48.4862 129.6 45.1262C129.628 44.8543 129.56 44.5812 129.406 44.3552C129.252 44.1292 129.023 43.9649 128.76 43.8914C127.137 43.4445 122.493 43.0246 111.054 46.6132C110.71 48.8169 108.863 50.4998 106.636 50.4998C105.432 50.4998 104.339 50.0081 103.535 49.2084ZM64.01 56.5782C63.9226 57.5165 63.8368 58.4748 63.753 59.4536C63.753 59.4536 63.6759 61.69 63.6283 65.3985C65.0132 64.5737 66.4187 63.7522 67.8432 62.9354C69.1952 62.1601 70.5422 61.4017 71.8824 60.6607C69.3415 59.3026 66.6977 57.9263 64.01 56.5782ZM75.2038 58.8522C71.5054 56.8475 67.8694 54.9824 64.3341 53.269C67.4775 22.6828 72.5075 15.1149 74.2902 13.352C74.4839 13.1605 74.739 13.0435 75.0105 13.0215C75.282 12.9996 75.5526 13.0741 75.7746 13.232C78.5274 15.1826 80.8362 23.3402 80.8362 23.3402C83.7601 34.1943 85.3165 44.7645 86.1406 53.298C82.5852 55.0012 78.9267 56.8566 75.2038 58.8522ZM75.0531 62.3741C71.8105 64.215 67.8582 66.5111 63.5963 69.1015C63.5789 72.9202 63.6053 77.6262 63.7395 82.7585C66.4443 84.4305 69.2171 86.0517 71.9946 87.5498C71.9946 87.5498 73.0984 88.2278 75.1128 89.3537C78.0769 87.7752 81.0364 86.1016 83.88 84.3548C83.88 84.3548 85.0213 83.7387 87.0071 82.5585C87.1145 79.185 87.1367 75.7671 87.0366 72.4142C87.0366 72.4142 87.0668 71.2521 87.0401 69.1681C83.7514 67.2378 79.6264 64.8721 75.0531 62.3741ZM86.9534 65.5776C85.4983 64.6999 84.0202 63.8256 82.521 62.9564C81.106 62.136 79.6963 61.3343 78.2939 60.5518C81.5455 58.7414 83.5314 57.6914 83.5314 57.6914C84.5124 57.235 85.473 56.7929 86.4137 56.3647C86.705 59.9364 86.8661 63.0593 86.9534 65.5776ZM89.7748 70.7863C89.8012 72.3937 89.8146 74.0172 89.8146 75.6548C89.8146 77.4134 89.7991 79.1559 89.7687 80.8796C91.9259 79.5401 94.578 77.8301 97.5581 75.7788C96.6923 75.1619 95.8032 74.534 94.89 73.895C94.89 73.895 92.9801 72.6986 89.7748 70.7863ZM99.9454 77.4949C96.6999 79.6892 93.2732 81.8952 89.6946 84.0859C89.5729 88.3277 89.3606 92.4427 89.0667 96.3909C96.852 99.9449 106.749 103.879 117.572 106.781C117.572 106.781 125.788 108.874 128.856 107.469C129.105 107.357 129.305 107.16 129.423 106.913C129.54 106.667 129.567 106.387 129.498 106.123C128.863 103.705 124.84 95.5517 99.9454 77.4949ZM86.2519 95.0804C86.5066 92.1206 86.7265 88.9907 86.8786 85.7877C85.4288 86.6527 83.9562 87.5142 82.4628 88.3706C80.9527 89.2365 79.4489 90.0813 77.9538 90.9044C80.1895 92.0976 82.9916 93.5326 86.2519 95.0804ZM72.2244 90.8624C70.7589 90.0464 69.2851 89.2094 67.8054 88.352C66.4656 87.5756 65.1426 86.7952 63.8378 86.0119C63.9355 88.8564 64.0683 91.7966 64.2462 94.7606C66.8213 93.5587 69.5095 92.2536 72.2244 90.8624ZM60.5371 80.7369C60.5084 79.0597 60.4938 77.3649 60.4938 75.6548C60.4938 74.0843 60.5061 72.5266 60.5304 70.9837C58.0924 72.4959 55.5878 74.0873 53.0854 75.7302C55.4394 77.3743 57.9433 79.0661 60.5371 80.7369ZM50.4697 77.4676C53.6828 79.6576 57.0732 81.8596 60.6127 84.0474C60.7317 88.2162 60.9383 92.2626 61.2238 96.1488C51.5679 100.513 44.1642 103.2 44.1642 103.2C27.3588 109.256 21.9822 107.327 21.9822 107.327C20.439 107.133 20.787 105.864 20.787 105.864C22.68 100.482 28.704 94.8704 28.704 94.8704C33.8765 89.3053 42.023 83.1458 50.4697 77.4676Z" fill="white" fill-opacity="0.1"/>
</g>
<defs>
<clipPath id="clip0_112_1745">
<rect width="150" height="150" fill="white" transform="translate(0 0.5)"/>
</clipPath>
</defs>
</svg>
