<svg width="90" height="151" viewBox="0 0 90 151" fill="none" xmlns="http://www.w3.org/2000/svg">
<g clip-path="url(#clip0_112_2096)">
<path fillule="evenodd" clip-rule="evenodd" d="M44.9437 0.5L0.0534668 77.7361L44.9437 106.032V106.06L89.834 77.7361L44.9437 0.5ZM51.5535 56.156L78.4079 71.3553L51.5535 25.2234V56.156ZM76.8245 78.1158L51.5535 94.0496V63.8127L76.8245 78.1158ZM44.9437 150.297L0.0534668 85.4429L45.014 113.666L89.9465 85.4429L45.0844 150.297V150.5L45.014 150.398L44.9437 150.5V150.297ZM51.6379 129.152V117.395L66.0669 108.338L51.6379 129.152ZM38.3902 129.152V117.395L23.9612 108.338L38.3902 129.152ZM12.9532 78.0643L38.3059 94.0496V63.7149L12.9532 78.0643ZM11.5363 71.2096L38.3059 25.2234V56.0582L11.5363 71.2096Z" fill="white" fill-opacity="0.08"/>
</g>
<defs>
<clipPath id="clip0_112_2096">
<rect width="89.8931" height="150" fill="white" transform="translate(0.0534668 0.5)"/>
</clipPath>
</defs>
</svg>
